# xmcd
#
# Track frame offsets:
#	150
#	13214
#	24317
#	37848
#	49478
#	59884
#	73601
#	85329
#	97880
#	108221
#	119338
#	133427
#	143839
#	155244
#	167106
#	178274
#	188523
#	199732
#	211537
#	221259
#	232014
#	242102
#	253536
#	265523
#	275897
#	287396
#	298062
#	313274
#	322969
#	337084
#	347686
#
# Disc length: 4797 seconds
#
# Revision: 1
# Processed by: cddbd v1.5.2PL0 Copyright (c) Steve Scherf et al.
# Submitted via: audiograbber 1.83.01
#
DISCID=e012bb1f
DTITLE=Wanda Jackson - The Ballads Of
DYEAR=2007
DGENRE=Oldies
TTITLE0=The Tip Of My Fingers
TTITLE1=In the Middle of A Heartache
TTITLE2=The Last Letter
TTITLE3=I May Never Get to Heaven
TTITLE4=I Need You Now
TTITLE5=We Could
TTITLE6=Sinful Heart
TTITLE7=Heartbreak Ahead
TTITLE8=Please Call Today
TTITLE9=Little Charm Bracelet
TTITLE10=Wanda Jackson - 2007 - The Ballads of - 11. just call me lonesome
TTITLE11=Making Believe
TTITLE12=I'd Rather Have You
TTITLE13=Right or Wrong
TTITLE14=Just Queen for A Day
TTITLE15=Is it Wrong
TTITLE16=Don't Ask Me Why
TTITLE17=Don't Ask Me Why
TTITLE18=Let Me Talk to You
TTITLE19=I Can't Make My Dreams Understand
TTITLE20=A Date with Jerry
TTITLE21=Why I'm Walkin'
TTITLE22=I Cried Again
TTITLE23=Between the Windows and the Phone
TTITLE24=If I Cried Every Time You Hurt Me
TTITLE25=One Teardrop at A Time
TTITLE26=Little Things Mean A Lot
TTITLE27=Have You Ever Been Lonely
TTITLE28=Day Dreaming
TTITLE29=So Soon
TTITLE30=May You Never Be Alone
EXTD=
EXTT0=
EXTT1=
EXTT2=
EXTT3=
EXTT4=
EXTT5=
EXTT6=
EXTT7=
EXTT8=
EXTT9=
EXTT10=
EXTT11=
EXTT12=
EXTT13=
EXTT14=
EXTT15=
EXTT16=
EXTT17=
EXTT18=
EXTT19=
EXTT20=
EXTT21=
EXTT22=
EXTT23=
EXTT24=
EXTT25=
EXTT26=
EXTT27=
EXTT28=
EXTT29=
EXTT30=
PLAYORDER=
